# xmcd CD database file
#
# Track frame offsets:
#	150
#	19650
#	36750
#	51825
#	66450
#	85350
#	101625
#	122700
#	142575
#	168375
#	187425
#	207750
#
# Disc length: 3028 seconds
#
# Revision: 0
# Processed by: cddbd v1.5.2PL0 Copyright (c) Steve Scherf et al.
# Submitted via: CDex 1.51
#
DISCID=aa0bd20c
DTITLE=Michael Bryers - Frangipani
DYEAR=1900
DGENRE=Blues
TTITLE0=Gone Again
TTITLE1=Runaway Car
TTITLE2=Already There
TTITLE3=21 Nights
TTITLE4=Frangipani
TTITLE5=Walkin' On
TTITLE6=Turnin' Blue
TTITLE7=Feel
TTITLE8=My Opinion
TTITLE9=Look The Other Way
TTITLE10=When You're Not Around
TTITLE11=John Prine Said
EXTD=
EXTT0=
EXTT1=
EXTT2=
EXTT3=
EXTT4=
EXTT5=
EXTT6=
EXTT7=
EXTT8=
EXTT9=
EXTT10=
EXTT11=
PLAYORDER=
